<svg width="70" height="71" viewBox="0 0 70 71" fill="none" xmlns="http://www.w3.org/2000/svg">
<g clip-path="url(#clip0_17_40)">
<path d="M35.339 67.9715C26.7405 67.9715 18.4941 64.5558 12.4141 58.4757C6.33396 52.3956 2.91821 44.1493 2.91821 35.5508C2.91821 26.9522 6.33396 18.7059 12.4141 12.6258C18.4941 6.54576 26.7405 3.13001 35.339 3.13V35.5508V67.9715Z" fill="url(#paint0_linear_17_40)"/>
<path d="M53.8178 51.6882C49.5379 51.6882 45.4333 49.988 42.407 46.9617C39.3806 43.9353 37.6805 39.8307 37.6805 35.5509C37.6805 31.271 39.3806 27.1664 42.407 24.1401C45.4333 21.1137 49.5379 19.4135 53.8178 19.4135V35.5509V51.6882Z" fill="url(#paint1_linear_17_40)"/>
<path d="M32.4208 67.9715C23.8223 67.9715 15.5759 64.5558 9.49582 58.4757C3.41575 52.3956 2.733e-07 44.1493 0 35.5508C-2.733e-07 26.9522 3.41575 18.7059 9.49582 12.6258C15.5759 6.54576 23.8223 3.13001 32.4208 3.13V35.5508V67.9715Z" fill="#121212"/>
<path d="M50.8996 51.6882C46.6197 51.6882 42.5151 49.988 39.4888 46.9617C36.4624 43.9353 34.7622 39.8307 34.7622 35.5509C34.7622 31.271 36.4624 27.1664 39.4888 24.1401C42.5151 21.1137 46.6197 19.4135 50.8996 19.4135V35.5509V51.6882Z" fill="#121212"/>
</g>
<defs>
<linearGradient id="paint0_linear_17_40" x1="19.1286" y1="-2.29336" x2="19.3587" y2="60.807" gradientUnits="userSpaceOnUse">
<stop offset="0.197917" stop-color="#B16CEA"/>
<stop offset="0.557292" stop-color="#FF5E69"/>
<stop offset="0.828125" stop-color="#FF8A56"/>
<stop offset="1" stop-color="#FFA84B"/>
</linearGradient>
<linearGradient id="paint1_linear_17_40" x1="45.7491" y1="16.7141" x2="45.8636" y2="48.1221" gradientUnits="userSpaceOnUse">
<stop offset="0.197917" stop-color="#B16CEA"/>
<stop offset="0.557292" stop-color="#FF5E69"/>
<stop offset="0.828125" stop-color="#FF8A56"/>
<stop offset="1" stop-color="#FFA84B"/>
</linearGradient>
<clipPath id="clip0_17_40">
<rect width="70" height="65" fill="white" transform="translate(0 3.13)"/>
</clipPath>
</defs>
</svg>
