<svg width="70" height="71" viewBox="0 0 70 71" fill="none" xmlns="http://www.w3.org/2000/svg">
<path d="M69.0219 37.0894C69.0219 45.8125 65.5566 54.1784 59.3884 60.3465C53.2203 66.5147 44.8543 69.98 36.1312 69.98C27.4081 69.98 19.0422 66.5147 12.8741 60.3465C6.70585 54.1784 3.2406 45.8125 3.2406 37.0894H36.1312H69.0219Z" fill="url(#paint0_linear_17_80)"/>
<path d="M36.1313 32.0722C42.3815 32.0722 47.4483 27.0054 47.4483 20.7552C47.4483 14.505 42.3815 9.43823 36.1313 9.43823C29.8811 9.43823 24.8143 14.505 24.8143 20.7552C24.8143 27.0054 29.8811 32.0722 36.1313 32.0722Z" fill="url(#paint1_linear_17_80)"/>
<path d="M65.7812 34.0278C65.7812 42.7509 62.316 51.1168 56.1478 57.285C49.9796 63.4532 41.6138 66.9184 32.8907 66.9184C24.1674 66.9184 15.8016 63.4532 9.63344 57.285C3.46525 51.1168 1.31716e-06 42.7509 0 34.0278H32.8907H65.7812Z" fill="#121212"/>
<path d="M32.8906 29.0107C39.1408 29.0107 44.2076 23.9439 44.2076 17.6937C44.2076 11.4435 39.1408 6.37671 32.8906 6.37671C26.6404 6.37671 21.5736 11.4435 21.5736 17.6937C21.5736 23.9439 26.6404 29.0107 32.8906 29.0107Z" fill="#121212"/>
<defs>
<linearGradient id="paint0_linear_17_80" x1="-2.26137" y1="53.5347" x2="61.7535" y2="53.3013" gradientUnits="userSpaceOnUse">
<stop offset="0.197917" stop-color="#B16CEA"/>
<stop offset="0.557292" stop-color="#FF5E69"/>
<stop offset="0.828125" stop-color="#FF8A56"/>
<stop offset="1" stop-color="#FFA84B"/>
</linearGradient>
<linearGradient id="paint1_linear_17_80" x1="17.0109" y1="18.2032" x2="43.8329" y2="16.1273" gradientUnits="userSpaceOnUse">
<stop offset="0.197917" stop-color="#B16CEA"/>
<stop offset="0.557292" stop-color="#FF5E69"/>
<stop offset="0.828125" stop-color="#FF8A56"/>
<stop offset="1" stop-color="#FFA84B"/>
</linearGradient>
</defs>
</svg>
