<svg width="100" height="17" viewBox="0 0 100 17" fill="none" xmlns="http://www.w3.org/2000/svg">
<path d="M9.15327 2.79875L10.3266 5.14541C10.4866 5.47208 10.9133 5.78541 11.2733 5.84541L13.3999 6.19875C14.7599 6.42541 15.0799 7.41209 14.0999 8.38542L12.4466 10.0388C12.1666 10.3188 12.0133 10.8588 12.0999 11.2454L12.5733 13.2921C12.9466 14.9121 12.0866 15.5388 10.6533 14.6921L8.65994 13.5121C8.29994 13.2988 7.70661 13.2988 7.33994 13.5121L5.34661 14.6921C3.91994 15.5388 3.05327 14.9054 3.42661 13.2921L3.89994 11.2454C3.98661 10.8588 3.83327 10.3188 3.55327 10.0388L1.89994 8.38542C0.926606 7.41209 1.23994 6.42541 2.59994 6.19875L4.72661 5.84541C5.07994 5.78541 5.50661 5.47208 5.66661 5.14541L6.83994 2.79875C7.47994 1.52542 8.51994 1.52542 9.15327 2.79875Z" fill="#FAB702"/>
<path d="M30.1533 2.79875L31.3266 5.14541C31.4866 5.47208 31.9133 5.78541 32.2733 5.84541L34.3999 6.19875C35.7599 6.42541 36.0799 7.41209 35.0999 8.38542L33.4466 10.0388C33.1666 10.3188 33.0133 10.8588 33.0999 11.2454L33.5733 13.2921C33.9466 14.9121 33.0866 15.5388 31.6533 14.6921L29.6599 13.5121C29.2999 13.2988 28.7066 13.2988 28.3399 13.5121L26.3466 14.6921C24.9199 15.5388 24.0533 14.9054 24.4266 13.2921L24.8999 11.2454C24.9866 10.8588 24.8333 10.3188 24.5533 10.0388L22.8999 8.38542C21.9266 7.41209 22.2399 6.42541 23.5999 6.19875L25.7266 5.84541C26.0799 5.78541 26.5066 5.47208 26.6666 5.14541L27.8399 2.79875C28.4799 1.52542 29.5199 1.52542 30.1533 2.79875Z" fill="#FAB702"/>
<path d="M51.1533 2.79875L52.3266 5.14541C52.4866 5.47208 52.9133 5.78541 53.2733 5.84541L55.3999 6.19875C56.7599 6.42541 57.0799 7.41209 56.0999 8.38542L54.4466 10.0388C54.1666 10.3188 54.0133 10.8588 54.0999 11.2454L54.5733 13.2921C54.9466 14.9121 54.0866 15.5388 52.6533 14.6921L50.6599 13.5121C50.2999 13.2988 49.7066 13.2988 49.3399 13.5121L47.3466 14.6921C45.9199 15.5388 45.0533 14.9054 45.4266 13.2921L45.8999 11.2454C45.9866 10.8588 45.8333 10.3188 45.5533 10.0388L43.8999 8.38542C42.9266 7.41209 43.2399 6.42541 44.5999 6.19875L46.7266 5.84541C47.0799 5.78541 47.5066 5.47208 47.6666 5.14541L48.8399 2.79875C49.4799 1.52542 50.5199 1.52542 51.1533 2.79875Z" fill="#FAB702"/>
<path d="M72.1533 2.79875L73.3266 5.14541C73.4866 5.47208 73.9133 5.78541 74.2733 5.84541L76.3999 6.19875C77.7599 6.42541 78.0799 7.41209 77.0999 8.38542L75.4466 10.0388C75.1666 10.3188 75.0133 10.8588 75.0999 11.2454L75.5733 13.2921C75.9466 14.9121 75.0866 15.5388 73.6533 14.6921L71.6599 13.5121C71.2999 13.2988 70.7066 13.2988 70.3399 13.5121L68.3466 14.6921C66.9199 15.5388 66.0533 14.9054 66.4266 13.2921L66.8999 11.2454C66.9866 10.8588 66.8333 10.3188 66.5533 10.0388L64.8999 8.38542C63.9266 7.41209 64.2399 6.42541 65.5999 6.19875L67.7266 5.84541C68.0799 5.78541 68.5066 5.47208 68.6666 5.14541L69.8399 2.79875C70.4799 1.52542 71.5199 1.52542 72.1533 2.79875Z" fill="#FAB702"/>
<path d="M93.1533 2.79875L94.3266 5.14541C94.4866 5.47208 94.9133 5.78541 95.2733 5.84541L97.3999 6.19875C98.7599 6.42541 99.0799 7.41209 98.0999 8.38542L96.4466 10.0388C96.1666 10.3188 96.0133 10.8588 96.0999 11.2454L96.5733 13.2921C96.9466 14.9121 96.0866 15.5388 94.6533 14.6921L92.6599 13.5121C92.2999 13.2988 91.7066 13.2988 91.3399 13.5121L89.3466 14.6921C87.9199 15.5388 87.0533 14.9054 87.4266 13.2921L87.8999 11.2454C87.9866 10.8588 87.8333 10.3188 87.5533 10.0388L85.8999 8.38542C84.9266 7.41209 85.2399 6.42541 86.5999 6.19875L88.7266 5.84541C89.0799 5.78541 89.5066 5.47208 89.6666 5.14541L90.8399 2.79875C91.4799 1.52542 92.5199 1.52542 93.1533 2.79875Z" fill="#FAB702"/>
</svg>
