<svg width="44" height="40" viewBox="0 0 44 40" fill="none" xmlns="http://www.w3.org/2000/svg">
<path d="M43.603 38.9166C43.4658 39.1542 43.2685 39.3514 43.0309 39.4886C42.7933 39.6257 42.5238 39.6979 42.2495 39.6978H4.7495C4.47536 39.6975 4.20612 39.6251 3.96881 39.4879C3.7315 39.3506 3.53448 39.1534 3.39753 38.9159C3.26059 38.6784 3.18853 38.4091 3.1886 38.1349C3.18867 37.8608 3.26086 37.5915 3.39793 37.3541C6.37254 32.2115 10.9565 28.524 16.3061 26.7759C13.66 25.2007 11.6041 22.8003 10.4542 19.9435C9.30424 17.0867 9.12388 13.9314 9.94079 10.9622C10.7577 7.99296 12.5267 5.37398 14.9761 3.50744C17.4255 1.6409 20.4199 0.630005 23.4995 0.630005C26.579 0.630005 29.5735 1.6409 32.0229 3.50744C34.4723 5.37398 36.2413 7.99296 37.0582 10.9622C37.8751 13.9314 37.6948 17.0867 36.5448 19.9435C35.3949 22.8003 33.339 25.2007 30.6929 26.7759C36.0425 28.524 40.6264 32.2115 43.6011 37.3541C43.7385 37.5914 43.811 37.8608 43.8114 38.1351C43.8117 38.4093 43.7398 38.6789 43.603 38.9166Z" fill="white"/>
<path d="M43.603 38.9166C43.4658 39.1542 43.2685 39.3514 43.0309 39.4886C42.7933 39.6257 42.5238 39.6979 42.2495 39.6978H4.7495C4.47536 39.6975 4.20612 39.6251 3.96881 39.4879C3.7315 39.3506 3.53448 39.1534 3.39753 38.9159C3.26059 38.6784 3.18853 38.4091 3.1886 38.1349C3.18867 37.8608 3.26086 37.5915 3.39793 37.3541C6.37254 32.2115 10.9565 28.524 16.3061 26.7759C13.66 25.2007 11.6041 22.8003 10.4542 19.9435C9.30424 17.0867 9.12388 13.9314 9.94079 10.9622C10.7577 7.99296 12.5267 5.37398 14.9761 3.50744C17.4255 1.6409 20.4199 0.630005 23.4995 0.630005C26.579 0.630005 29.5735 1.6409 32.0229 3.50744C34.4723 5.37398 36.2413 7.99296 37.0582 10.9622C37.8751 13.9314 37.6948 17.0867 36.5448 19.9435C35.3949 22.8003 33.339 25.2007 30.6929 26.7759C36.0425 28.524 40.6264 32.2115 43.6011 37.3541C43.7385 37.5914 43.811 37.8608 43.8114 38.1351C43.8117 38.4093 43.7398 38.6789 43.603 38.9166Z" fill="url(#paint0_linear_17_108)"/>
<path d="M40.603 38.9166C40.4658 39.1542 40.2685 39.3514 40.0309 39.4886C39.7933 39.6257 39.5238 39.6979 39.2495 39.6978H1.7495C1.47536 39.6975 1.20612 39.6251 0.968808 39.4879C0.731501 39.3506 0.534482 39.1534 0.397533 38.9159C0.260585 38.6784 0.188528 38.4091 0.188599 38.1349C0.188669 37.8608 0.260864 37.5915 0.397934 37.3541C3.37254 32.2115 7.95653 28.524 13.3061 26.7759C10.66 25.2007 8.60408 22.8003 7.45416 19.9435C6.30424 17.0867 6.12388 13.9314 6.94079 10.9622C7.75769 7.99296 9.52668 5.37398 11.9761 3.50744C14.4255 1.6409 17.4199 0.630005 20.4995 0.630005C23.579 0.630005 26.5735 1.6409 29.0229 3.50744C31.4723 5.37398 33.2413 7.99296 34.0582 10.9622C34.8751 13.9314 34.6948 17.0867 33.5448 19.9435C32.3949 22.8003 30.339 25.2007 27.6929 26.7759C33.0425 28.524 37.6264 32.2115 40.6011 37.3541C40.7385 37.5914 40.811 37.8608 40.8114 38.1351C40.8117 38.4093 40.7398 38.6789 40.603 38.9166Z" fill="white"/>
<defs>
<linearGradient id="paint0_linear_17_108" x1="23.4999" y1="-2.63756" x2="23.5665" y2="35.3815" gradientUnits="userSpaceOnUse">
<stop offset="0.197917" stop-color="#B16CEA"/>
<stop offset="0.557292" stop-color="#FF5E69"/>
<stop offset="0.828125" stop-color="#FF8A56"/>
<stop offset="1" stop-color="#FFA84B"/>
</linearGradient>
</defs>
</svg>
