<svg width="42" height="36" viewBox="0 0 42 36" fill="none" xmlns="http://www.w3.org/2000/svg">
<path d="M27.4688 2.19238V20.9424C27.4688 21.3568 27.3041 21.7542 27.0111 22.0472C26.7181 22.3403 26.3207 22.5049 25.9062 22.5049H18.0938C17.6793 22.5049 17.2819 22.3403 16.9889 22.0472C16.6959 21.7542 16.5312 21.3568 16.5312 20.9424V2.19238C16.5312 1.77798 16.6959 1.38055 16.9889 1.08753C17.2819 0.794503 17.6793 0.629883 18.0938 0.629883H25.9062C26.3207 0.629883 26.7181 0.794503 27.0111 1.08753C27.3041 1.38055 27.4688 1.77798 27.4688 2.19238ZM39.9688 0.629883H32.1562C31.7418 0.629883 31.3444 0.794503 31.0514 1.08753C30.7584 1.38055 30.5938 1.77798 30.5938 2.19238V11.5674C30.5938 11.9818 30.7584 12.3792 31.0514 12.6722C31.3444 12.9653 31.7418 13.1299 32.1562 13.1299H39.9688C40.3832 13.1299 40.7806 12.9653 41.0736 12.6722C41.3666 12.3792 41.5312 11.9818 41.5312 11.5674V2.19238C41.5312 1.77798 41.3666 1.38055 41.0736 1.08753C40.7806 0.794503 40.3832 0.629883 39.9688 0.629883ZM39.9688 16.2549H32.1562C31.7418 16.2549 31.3444 16.4195 31.0514 16.7125C30.7584 17.0056 30.5938 17.403 30.5938 17.8174V25.6299C30.5938 26.4587 30.923 27.2535 31.509 27.8396C32.0951 28.4256 32.8899 28.7549 33.7188 28.7549H38.4062C39.2351 28.7549 40.0299 28.4256 40.616 27.8396C41.202 27.2535 41.5312 26.4587 41.5312 25.6299V17.8174C41.5312 17.403 41.3666 17.0056 41.0736 16.7125C40.7806 16.4195 40.3832 16.2549 39.9688 16.2549ZM11.8438 0.629883H4.03125C3.61685 0.629883 3.21942 0.794503 2.9264 1.08753C2.63337 1.38055 2.46875 1.77798 2.46875 2.19238V11.5674C2.46875 11.9818 2.63337 12.3792 2.9264 12.6722C3.21942 12.9653 3.61685 13.1299 4.03125 13.1299H11.8438C12.2582 13.1299 12.6556 12.9653 12.9486 12.6722C13.2416 12.3792 13.4062 11.9818 13.4062 11.5674V2.19238C13.4062 1.77798 13.2416 1.38055 12.9486 1.08753C12.6556 0.794503 12.2582 0.629883 11.8438 0.629883ZM11.8438 16.2549H4.03125C3.61685 16.2549 3.21942 16.4195 2.9264 16.7125C2.63337 17.0056 2.46875 17.403 2.46875 17.8174V31.8799C2.46875 32.7087 2.79799 33.5035 3.38404 34.0896C3.97009 34.6756 4.76495 35.0049 5.59375 35.0049H10.2812C11.1101 35.0049 11.9049 34.6756 12.491 34.0896C13.077 33.5035 13.4062 32.7087 13.4062 31.8799V17.8174C13.4062 17.403 13.2416 17.0056 12.9486 16.7125C12.6556 16.4195 12.2582 16.2549 11.8438 16.2549Z" fill="white"/>
<path d="M27.4688 2.19238V20.9424C27.4688 21.3568 27.3041 21.7542 27.0111 22.0472C26.7181 22.3403 26.3207 22.5049 25.9062 22.5049H18.0938C17.6793 22.5049 17.2819 22.3403 16.9889 22.0472C16.6959 21.7542 16.5312 21.3568 16.5312 20.9424V2.19238C16.5312 1.77798 16.6959 1.38055 16.9889 1.08753C17.2819 0.794503 17.6793 0.629883 18.0938 0.629883H25.9062C26.3207 0.629883 26.7181 0.794503 27.0111 1.08753C27.3041 1.38055 27.4688 1.77798 27.4688 2.19238ZM39.9688 0.629883H32.1562C31.7418 0.629883 31.3444 0.794503 31.0514 1.08753C30.7584 1.38055 30.5938 1.77798 30.5938 2.19238V11.5674C30.5938 11.9818 30.7584 12.3792 31.0514 12.6722C31.3444 12.9653 31.7418 13.1299 32.1562 13.1299H39.9688C40.3832 13.1299 40.7806 12.9653 41.0736 12.6722C41.3666 12.3792 41.5312 11.9818 41.5312 11.5674V2.19238C41.5312 1.77798 41.3666 1.38055 41.0736 1.08753C40.7806 0.794503 40.3832 0.629883 39.9688 0.629883ZM39.9688 16.2549H32.1562C31.7418 16.2549 31.3444 16.4195 31.0514 16.7125C30.7584 17.0056 30.5938 17.403 30.5938 17.8174V25.6299C30.5938 26.4587 30.923 27.2535 31.509 27.8396C32.0951 28.4256 32.8899 28.7549 33.7188 28.7549H38.4062C39.2351 28.7549 40.0299 28.4256 40.616 27.8396C41.202 27.2535 41.5312 26.4587 41.5312 25.6299V17.8174C41.5312 17.403 41.3666 17.0056 41.0736 16.7125C40.7806 16.4195 40.3832 16.2549 39.9688 16.2549ZM11.8438 0.629883H4.03125C3.61685 0.629883 3.21942 0.794503 2.9264 1.08753C2.63337 1.38055 2.46875 1.77798 2.46875 2.19238V11.5674C2.46875 11.9818 2.63337 12.3792 2.9264 12.6722C3.21942 12.9653 3.61685 13.1299 4.03125 13.1299H11.8438C12.2582 13.1299 12.6556 12.9653 12.9486 12.6722C13.2416 12.3792 13.4062 11.9818 13.4062 11.5674V2.19238C13.4062 1.77798 13.2416 1.38055 12.9486 1.08753C12.6556 0.794503 12.2582 0.629883 11.8438 0.629883ZM11.8438 16.2549H4.03125C3.61685 16.2549 3.21942 16.4195 2.9264 16.7125C2.63337 17.0056 2.46875 17.403 2.46875 17.8174V31.8799C2.46875 32.7087 2.79799 33.5035 3.38404 34.0896C3.97009 34.6756 4.76495 35.0049 5.59375 35.0049H10.2812C11.1101 35.0049 11.9049 34.6756 12.491 34.0896C13.077 33.5035 13.4062 32.7087 13.4062 31.8799V17.8174C13.4062 17.403 13.2416 17.0056 12.9486 16.7125C12.6556 16.4195 12.2582 16.2549 11.8438 16.2549Z" fill="url(#paint0_linear_17_115)"/>
<path d="M25.4688 2.19238V20.9424C25.4688 21.3568 25.3041 21.7542 25.0111 22.0472C24.7181 22.3403 24.3207 22.5049 23.9062 22.5049H16.0938C15.6793 22.5049 15.2819 22.3403 14.9889 22.0472C14.6959 21.7542 14.5312 21.3568 14.5312 20.9424V2.19238C14.5312 1.77798 14.6959 1.38055 14.9889 1.08753C15.2819 0.794503 15.6793 0.629883 16.0938 0.629883H23.9062C24.3207 0.629883 24.7181 0.794503 25.0111 1.08753C25.3041 1.38055 25.4688 1.77798 25.4688 2.19238ZM37.9688 0.629883H30.1562C29.7418 0.629883 29.3444 0.794503 29.0514 1.08753C28.7584 1.38055 28.5938 1.77798 28.5938 2.19238V11.5674C28.5938 11.9818 28.7584 12.3792 29.0514 12.6722C29.3444 12.9653 29.7418 13.1299 30.1562 13.1299H37.9688C38.3832 13.1299 38.7806 12.9653 39.0736 12.6722C39.3666 12.3792 39.5312 11.9818 39.5312 11.5674V2.19238C39.5312 1.77798 39.3666 1.38055 39.0736 1.08753C38.7806 0.794503 38.3832 0.629883 37.9688 0.629883ZM37.9688 16.2549H30.1562C29.7418 16.2549 29.3444 16.4195 29.0514 16.7125C28.7584 17.0056 28.5938 17.403 28.5938 17.8174V25.6299C28.5938 26.4587 28.923 27.2535 29.509 27.8396C30.0951 28.4256 30.8899 28.7549 31.7188 28.7549H36.4062C37.2351 28.7549 38.0299 28.4256 38.616 27.8396C39.202 27.2535 39.5312 26.4587 39.5312 25.6299V17.8174C39.5312 17.403 39.3666 17.0056 39.0736 16.7125C38.7806 16.4195 38.3832 16.2549 37.9688 16.2549ZM9.84375 0.629883H2.03125C1.61685 0.629883 1.21942 0.794503 0.926396 1.08753C0.63337 1.38055 0.46875 1.77798 0.46875 2.19238V11.5674C0.46875 11.9818 0.63337 12.3792 0.926396 12.6722C1.21942 12.9653 1.61685 13.1299 2.03125 13.1299H9.84375C10.2582 13.1299 10.6556 12.9653 10.9486 12.6722C11.2416 12.3792 11.4062 11.9818 11.4062 11.5674V2.19238C11.4062 1.77798 11.2416 1.38055 10.9486 1.08753C10.6556 0.794503 10.2582 0.629883 9.84375 0.629883ZM9.84375 16.2549H2.03125C1.61685 16.2549 1.21942 16.4195 0.926396 16.7125C0.63337 17.0056 0.46875 17.403 0.46875 17.8174V31.8799C0.46875 32.7087 0.79799 33.5035 1.38404 34.0896C1.97009 34.6756 2.76495 35.0049 3.59375 35.0049H8.28125C9.11005 35.0049 9.90491 34.6756 10.491 34.0896C11.077 33.5035 11.4062 32.7087 11.4062 31.8799V17.8174C11.4062 17.403 11.2416 17.0056 10.9486 16.7125C10.6556 16.4195 10.2582 16.2549 9.84375 16.2549Z" fill="white"/>
<defs>
<linearGradient id="paint0_linear_17_115" x1="21.9999" y1="-2.24518" x2="22.0535" y2="31.2071" gradientUnits="userSpaceOnUse">
<stop offset="0.197917" stop-color="#B16CEA"/>
<stop offset="0.557292" stop-color="#FF5E69"/>
<stop offset="0.828125" stop-color="#FF8A56"/>
<stop offset="1" stop-color="#FFA84B"/>
</linearGradient>
</defs>
</svg>
