<svg width="38" height="37" viewBox="0 0 38 37" fill="none" xmlns="http://www.w3.org/2000/svg">
<path d="M15.3125 0.629883H5.9375C4.21161 0.629883 2.8125 2.02899 2.8125 3.75488V13.1299C2.8125 14.8558 4.21161 16.2549 5.9375 16.2549H15.3125C17.0384 16.2549 18.4375 14.8558 18.4375 13.1299V3.75488C18.4375 2.02899 17.0384 0.629883 15.3125 0.629883Z" fill="white"/>
<path d="M15.3125 0.629883H5.9375C4.21161 0.629883 2.8125 2.02899 2.8125 3.75488V13.1299C2.8125 14.8558 4.21161 16.2549 5.9375 16.2549H15.3125C17.0384 16.2549 18.4375 14.8558 18.4375 13.1299V3.75488C18.4375 2.02899 17.0384 0.629883 15.3125 0.629883Z" fill="url(#paint0_linear_17_143)"/>
<path d="M15.3125 19.3799H5.9375C4.21161 19.3799 2.8125 20.779 2.8125 22.5049V31.8799C2.8125 33.6058 4.21161 35.0049 5.9375 35.0049H15.3125C17.0384 35.0049 18.4375 33.6058 18.4375 31.8799V22.5049C18.4375 20.779 17.0384 19.3799 15.3125 19.3799Z" fill="white"/>
<path d="M15.3125 19.3799H5.9375C4.21161 19.3799 2.8125 20.779 2.8125 22.5049V31.8799C2.8125 33.6058 4.21161 35.0049 5.9375 35.0049H15.3125C17.0384 35.0049 18.4375 33.6058 18.4375 31.8799V22.5049C18.4375 20.779 17.0384 19.3799 15.3125 19.3799Z" fill="url(#paint1_linear_17_143)"/>
<path d="M34.0625 0.629883H24.6875C22.9616 0.629883 21.5625 2.02899 21.5625 3.75488V13.1299C21.5625 14.8558 22.9616 16.2549 24.6875 16.2549H34.0625C35.7884 16.2549 37.1875 14.8558 37.1875 13.1299V3.75488C37.1875 2.02899 35.7884 0.629883 34.0625 0.629883Z" fill="white"/>
<path d="M34.0625 0.629883H24.6875C22.9616 0.629883 21.5625 2.02899 21.5625 3.75488V13.1299C21.5625 14.8558 22.9616 16.2549 24.6875 16.2549H34.0625C35.7884 16.2549 37.1875 14.8558 37.1875 13.1299V3.75488C37.1875 2.02899 35.7884 0.629883 34.0625 0.629883Z" fill="url(#paint2_linear_17_143)"/>
<path d="M23.125 28.7549C23.5394 28.7549 23.9368 28.5903 24.2299 28.2972C24.5229 28.0042 24.6875 27.6068 24.6875 27.1924V20.9424C24.6875 20.528 24.5229 20.1306 24.2299 19.8375C23.9368 19.5445 23.5394 19.3799 23.125 19.3799C22.7106 19.3799 22.3132 19.5445 22.0201 19.8375C21.7271 20.1306 21.5625 20.528 21.5625 20.9424V27.1924C21.5625 27.6068 21.7271 28.0042 22.0201 28.2972C22.3132 28.5903 22.7106 28.7549 23.125 28.7549Z" fill="white"/>
<path d="M23.125 28.7549C23.5394 28.7549 23.9368 28.5903 24.2299 28.2972C24.5229 28.0042 24.6875 27.6068 24.6875 27.1924V20.9424C24.6875 20.528 24.5229 20.1306 24.2299 19.8375C23.9368 19.5445 23.5394 19.3799 23.125 19.3799C22.7106 19.3799 22.3132 19.5445 22.0201 19.8375C21.7271 20.1306 21.5625 20.528 21.5625 20.9424V27.1924C21.5625 27.6068 21.7271 28.0042 22.0201 28.2972C22.3132 28.5903 22.7106 28.7549 23.125 28.7549Z" fill="url(#paint3_linear_17_143)"/>
<path d="M35.625 22.5049H30.9375V20.9424C30.9375 20.528 30.7729 20.1306 30.4799 19.8375C30.1868 19.5445 29.7894 19.3799 29.375 19.3799C28.9606 19.3799 28.5632 19.5445 28.2701 19.8375C27.9771 20.1306 27.8125 20.528 27.8125 20.9424V31.8799H23.125C22.7106 31.8799 22.3132 32.0445 22.0201 32.3375C21.7271 32.6306 21.5625 33.028 21.5625 33.4424C21.5625 33.8568 21.7271 34.2542 22.0201 34.5472C22.3132 34.8403 22.7106 35.0049 23.125 35.0049H29.375C29.7894 35.0049 30.1868 34.8403 30.4799 34.5472C30.7729 34.2542 30.9375 33.8568 30.9375 33.4424V25.6299H35.625C36.0394 25.6299 36.4368 25.4653 36.7299 25.1722C37.0229 24.8792 37.1875 24.4818 37.1875 24.0674C37.1875 23.653 37.0229 23.2556 36.7299 22.9625C36.4368 22.6695 36.0394 22.5049 35.625 22.5049Z" fill="white"/>
<path d="M35.625 22.5049H30.9375V20.9424C30.9375 20.528 30.7729 20.1306 30.4799 19.8375C30.1868 19.5445 29.7894 19.3799 29.375 19.3799C28.9606 19.3799 28.5632 19.5445 28.2701 19.8375C27.9771 20.1306 27.8125 20.528 27.8125 20.9424V31.8799H23.125C22.7106 31.8799 22.3132 32.0445 22.0201 32.3375C21.7271 32.6306 21.5625 33.028 21.5625 33.4424C21.5625 33.8568 21.7271 34.2542 22.0201 34.5472C22.3132 34.8403 22.7106 35.0049 23.125 35.0049H29.375C29.7894 35.0049 30.1868 34.8403 30.4799 34.5472C30.7729 34.2542 30.9375 33.8568 30.9375 33.4424V25.6299H35.625C36.0394 25.6299 36.4368 25.4653 36.7299 25.1722C37.0229 24.8792 37.1875 24.4818 37.1875 24.0674C37.1875 23.653 37.0229 23.2556 36.7299 22.9625C36.4368 22.6695 36.0394 22.5049 35.625 22.5049Z" fill="url(#paint4_linear_17_143)"/>
<path d="M35.625 28.7549C35.2106 28.7549 34.8132 28.9195 34.5201 29.2125C34.2271 29.5056 34.0625 29.903 34.0625 30.3174V33.4424C34.0625 33.8568 34.2271 34.2542 34.5201 34.5472C34.8132 34.8403 35.2106 35.0049 35.625 35.0049C36.0394 35.0049 36.4368 34.8403 36.7299 34.5472C37.0229 34.2542 37.1875 33.8568 37.1875 33.4424V30.3174C37.1875 29.903 37.0229 29.5056 36.7299 29.2125C36.4368 28.9195 36.0394 28.7549 35.625 28.7549Z" fill="white"/>
<path d="M35.625 28.7549C35.2106 28.7549 34.8132 28.9195 34.5201 29.2125C34.2271 29.5056 34.0625 29.903 34.0625 30.3174V33.4424C34.0625 33.8568 34.2271 34.2542 34.5201 34.5472C34.8132 34.8403 35.2106 35.0049 35.625 35.0049C36.0394 35.0049 36.4368 34.8403 36.7299 34.5472C37.0229 34.2542 37.1875 33.8568 37.1875 33.4424V30.3174C37.1875 29.903 37.0229 29.5056 36.7299 29.2125C36.4368 28.9195 36.0394 28.7549 35.625 28.7549Z" fill="url(#paint5_linear_17_143)"/>
<path d="M13.3125 1.62988H3.9375C2.21161 1.62988 0.8125 3.02899 0.8125 4.75488V14.1299C0.8125 15.8558 2.21161 17.2549 3.9375 17.2549H13.3125C15.0384 17.2549 16.4375 15.8558 16.4375 14.1299V4.75488C16.4375 3.02899 15.0384 1.62988 13.3125 1.62988Z" fill="white"/>
<path d="M13.3125 20.3799H3.9375C2.21161 20.3799 0.8125 21.779 0.8125 23.5049V32.8799C0.8125 34.6058 2.21161 36.0049 3.9375 36.0049H13.3125C15.0384 36.0049 16.4375 34.6058 16.4375 32.8799V23.5049C16.4375 21.779 15.0384 20.3799 13.3125 20.3799Z" fill="white"/>
<path d="M32.0625 1.62988H22.6875C20.9616 1.62988 19.5625 3.02899 19.5625 4.75488V14.1299C19.5625 15.8558 20.9616 17.2549 22.6875 17.2549H32.0625C33.7884 17.2549 35.1875 15.8558 35.1875 14.1299V4.75488C35.1875 3.02899 33.7884 1.62988 32.0625 1.62988Z" fill="white"/>
<path d="M21.125 29.7549C21.5394 29.7549 21.9368 29.5903 22.2299 29.2972C22.5229 29.0042 22.6875 28.6068 22.6875 28.1924V21.9424C22.6875 21.528 22.5229 21.1306 22.2299 20.8375C21.9368 20.5445 21.5394 20.3799 21.125 20.3799C20.7106 20.3799 20.3132 20.5445 20.0201 20.8375C19.7271 21.1306 19.5625 21.528 19.5625 21.9424V28.1924C19.5625 28.6068 19.7271 29.0042 20.0201 29.2972C20.3132 29.5903 20.7106 29.7549 21.125 29.7549Z" fill="white"/>
<path d="M33.625 23.5049H28.9375V21.9424C28.9375 21.528 28.7729 21.1306 28.4799 20.8375C28.1868 20.5445 27.7894 20.3799 27.375 20.3799C26.9606 20.3799 26.5632 20.5445 26.2701 20.8375C25.9771 21.1306 25.8125 21.528 25.8125 21.9424V32.8799H21.125C20.7106 32.8799 20.3132 33.0445 20.0201 33.3375C19.7271 33.6306 19.5625 34.028 19.5625 34.4424C19.5625 34.8568 19.7271 35.2542 20.0201 35.5472C20.3132 35.8403 20.7106 36.0049 21.125 36.0049H27.375C27.7894 36.0049 28.1868 35.8403 28.4799 35.5472C28.7729 35.2542 28.9375 34.8568 28.9375 34.4424V26.6299H33.625C34.0394 26.6299 34.4368 26.4653 34.7299 26.1722C35.0229 25.8792 35.1875 25.4818 35.1875 25.0674C35.1875 24.653 35.0229 24.2556 34.7299 23.9625C34.4368 23.6695 34.0394 23.5049 33.625 23.5049Z" fill="white"/>
<path d="M33.625 29.7549C33.2106 29.7549 32.8132 29.9195 32.5201 30.2125C32.2271 30.5056 32.0625 30.903 32.0625 31.3174V34.4424C32.0625 34.8568 32.2271 35.2542 32.5201 35.5472C32.8132 35.8403 33.2106 36.0049 33.625 36.0049C34.0394 36.0049 34.4368 35.8403 34.7299 35.5472C35.0229 35.2542 35.1875 34.8568 35.1875 34.4424V31.3174C35.1875 30.903 35.0229 30.5056 34.7299 30.2125C34.4368 29.9195 34.0394 29.7549 33.625 29.7549Z" fill="white"/>
<defs>
<linearGradient id="paint0_linear_17_143" x1="10.625" y1="-0.676965" x2="10.6527" y2="14.5286" gradientUnits="userSpaceOnUse">
<stop offset="0.197917" stop-color="#B16CEA"/>
<stop offset="0.557292" stop-color="#FF5E69"/>
<stop offset="0.828125" stop-color="#FF8A56"/>
<stop offset="1" stop-color="#FFA84B"/>
</linearGradient>
<linearGradient id="paint1_linear_17_143" x1="10.625" y1="18.073" x2="10.6527" y2="33.2786" gradientUnits="userSpaceOnUse">
<stop offset="0.197917" stop-color="#B16CEA"/>
<stop offset="0.557292" stop-color="#FF5E69"/>
<stop offset="0.828125" stop-color="#FF8A56"/>
<stop offset="1" stop-color="#FFA84B"/>
</linearGradient>
<linearGradient id="paint2_linear_17_143" x1="29.375" y1="-0.676965" x2="29.4027" y2="14.5286" gradientUnits="userSpaceOnUse">
<stop offset="0.197917" stop-color="#B16CEA"/>
<stop offset="0.557292" stop-color="#FF5E69"/>
<stop offset="0.828125" stop-color="#FF8A56"/>
<stop offset="1" stop-color="#FFA84B"/>
</linearGradient>
<linearGradient id="paint3_linear_17_143" x1="23.125" y1="18.5958" x2="23.1749" y2="27.7189" gradientUnits="userSpaceOnUse">
<stop offset="0.197917" stop-color="#B16CEA"/>
<stop offset="0.557292" stop-color="#FF5E69"/>
<stop offset="0.828125" stop-color="#FF8A56"/>
<stop offset="1" stop-color="#FFA84B"/>
</linearGradient>
<linearGradient id="paint4_linear_17_143" x1="29.375" y1="18.073" x2="29.4027" y2="33.2786" gradientUnits="userSpaceOnUse">
<stop offset="0.197917" stop-color="#B16CEA"/>
<stop offset="0.557292" stop-color="#FF5E69"/>
<stop offset="0.828125" stop-color="#FF8A56"/>
<stop offset="1" stop-color="#FFA84B"/>
</linearGradient>
<linearGradient id="paint5_linear_17_143" x1="35.625" y1="28.2321" x2="35.6472" y2="34.3143" gradientUnits="userSpaceOnUse">
<stop offset="0.197917" stop-color="#B16CEA"/>
<stop offset="0.557292" stop-color="#FF5E69"/>
<stop offset="0.828125" stop-color="#FF8A56"/>
<stop offset="1" stop-color="#FFA84B"/>
</linearGradient>
</defs>
</svg>
