<svg width="148" height="29" viewBox="0 0 148 29" fill="none" xmlns="http://www.w3.org/2000/svg">
<circle cx="14" cy="14.5991" r="14" fill="white"/>
<path d="M20.2071 11.5822C19.7881 11.7685 19.3458 11.8849 18.8802 11.9547C19.3458 11.6753 19.7183 11.233 19.8812 10.6976C19.4389 10.9537 18.9501 11.1399 18.4146 11.2563C17.9956 10.814 17.3904 10.5347 16.7386 10.5347C15.4815 10.5347 14.4572 11.5589 14.4572 12.816C14.4572 13.0022 14.4805 13.1652 14.5271 13.3281C12.6415 13.235 10.9421 12.3272 9.80141 10.9304C9.61518 11.2796 9.49878 11.6521 9.49878 12.0711C9.49878 12.8626 9.89453 13.5609 10.5231 13.98C10.1506 13.9567 9.80141 13.8636 9.4755 13.7006V13.7239C9.4755 14.8413 10.267 15.7724 11.3145 15.982C11.1283 16.0285 10.9188 16.0518 10.7093 16.0518C10.5696 16.0518 10.4067 16.0285 10.267 16.0052C10.5696 16.9131 11.4077 17.5882 12.4087 17.5882C11.6172 18.1935 10.6395 18.5659 9.56862 18.5659C9.38239 18.5659 9.19616 18.5659 9.0332 18.5426C10.0575 19.1945 11.2447 19.5669 12.5483 19.5669C16.7618 19.5669 19.0665 16.0751 19.0665 13.0488C19.0665 12.9557 19.0665 12.8393 19.0665 12.7462C19.5088 12.4435 19.9045 12.0478 20.2071 11.5822Z" fill="#121212"/>
<circle cx="54" cy="14.5991" r="14" fill="white"/>
<path d="M52.7087 20.9029V15.3494H50.8398V13.1851H52.7087V11.5889C52.7087 9.73664 53.84 8.72803 55.4924 8.72803C56.2839 8.72803 56.9642 8.78696 57.1624 8.8133V10.7491L56.0164 10.7496C55.1178 10.7496 54.9438 11.1766 54.9438 11.8032V13.1851H57.087L56.8079 15.3494H54.9438V20.9029H52.7087Z" fill="#121212"/>
<circle cx="94" cy="14.5991" r="14" fill="white"/>
<path d="M94.0008 9.04633C95.8095 9.04633 96.0237 9.0531 96.7382 9.08568C97.1678 9.09094 97.5933 9.16983 97.9962 9.31891C98.2884 9.4316 98.5538 9.60423 98.7753 9.82568C98.9967 10.0471 99.1694 10.3125 99.282 10.6047C99.4311 11.0077 99.51 11.4332 99.5153 11.8628C99.5475 12.5773 99.5546 12.7915 99.5546 14.6002C99.5546 16.4089 99.5479 16.6231 99.5153 17.3376C99.51 17.7672 99.4311 18.1927 99.282 18.5957C99.1694 18.8879 98.9967 19.1533 98.7753 19.3747C98.5538 19.5962 98.2884 19.7688 97.9962 19.8815C97.5933 20.0306 97.1678 20.1095 96.7382 20.1147C96.024 20.147 95.8098 20.1541 94.0008 20.1541C92.1917 20.1541 91.9775 20.1473 91.2633 20.1147C90.8337 20.1095 90.4082 20.0306 90.0053 19.8815C89.7131 19.7688 89.4477 19.5962 89.2262 19.3747C89.0048 19.1533 88.8322 18.8879 88.7195 18.5957C88.5704 18.1927 88.4915 17.7672 88.4862 17.3376C88.454 16.6231 88.4469 16.4089 88.4469 14.6002C88.4469 12.7915 88.4537 12.5773 88.4862 11.8628C88.4915 11.4332 88.5704 11.0077 88.7195 10.6047C88.8322 10.3125 89.0048 10.0471 89.2262 9.82568C89.4477 9.60423 89.7131 9.4316 90.0053 9.31891C90.4082 9.16983 90.8337 9.09094 91.2633 9.08568C91.9779 9.05343 92.192 9.04633 94.0008 9.04633ZM94.0008 7.82568C92.162 7.82568 91.9304 7.83343 91.2079 7.86633C90.6456 7.87751 90.0893 7.98397 89.5627 8.18117C89.1109 8.35138 88.7017 8.61812 88.3637 8.96278C88.0187 9.30097 87.7517 9.71039 87.5814 10.1625C87.3842 10.6891 87.2777 11.2454 87.2666 11.8076C87.2343 12.5296 87.2266 12.7612 87.2266 14.5999C87.2266 16.4386 87.2343 16.6702 87.2672 17.3928C87.2784 17.955 87.3848 18.5113 87.582 19.0379C87.7522 19.4899 88.0189 19.8994 88.3637 20.2376C88.7019 20.5824 89.1113 20.8491 89.5633 21.0192C90.09 21.2164 90.6463 21.3229 91.2085 21.3341C91.9311 21.3663 92.1617 21.3747 94.0014 21.3747C95.8411 21.3747 96.0717 21.367 96.7943 21.3341C97.3565 21.3229 97.9128 21.2164 98.4395 21.0192C98.8893 20.8449 99.2978 20.5785 99.6389 20.2372C99.98 19.896 100.246 19.4873 100.42 19.0373C100.617 18.5107 100.724 17.9544 100.735 17.3921C100.767 16.6702 100.775 16.4386 100.775 14.5999C100.775 12.7612 100.767 12.5296 100.734 11.807C100.723 11.2447 100.617 10.6885 100.419 10.1618C100.249 9.70981 99.9826 9.30038 99.6379 8.96213C99.2996 8.6174 98.8902 8.35065 98.4382 8.18052C97.9115 7.98332 97.3553 7.87687 96.793 7.86568C96.0711 7.83343 95.8395 7.82568 94.0008 7.82568Z" fill="#121212"/>
<path d="M94.0021 11.1226C93.3141 11.1226 92.6416 11.3266 92.0695 11.7088C91.4974 12.0911 91.0515 12.6344 90.7882 13.27C90.5249 13.9057 90.4561 14.6051 90.5903 15.2799C90.7245 15.9547 91.0558 16.5746 91.5423 17.0611C92.0288 17.5476 92.6487 17.8789 93.3235 18.0131C93.9983 18.1474 94.6977 18.0785 95.3334 17.8152C95.969 17.5519 96.5123 17.106 96.8946 16.5339C97.2768 15.9619 97.4809 15.2893 97.4809 14.6013C97.4809 13.6787 97.1144 12.7938 96.462 12.1414C95.8096 11.4891 94.9248 11.1226 94.0021 11.1226ZM94.0021 16.8593C93.5555 16.8593 93.119 16.7269 92.7476 16.4788C92.3763 16.2307 92.0869 15.878 91.916 15.4654C91.7451 15.0528 91.7003 14.5988 91.7875 14.1607C91.8746 13.7227 92.0897 13.3204 92.4055 13.0046C92.7213 12.6888 93.1236 12.4737 93.5616 12.3866C93.9996 12.2995 94.4537 12.3442 94.8663 12.5151C95.2789 12.686 95.6315 12.9754 95.8797 13.3468C96.1278 13.7181 96.2602 14.1547 96.2602 14.6013C96.2602 15.2001 96.0223 15.7745 95.5988 16.198C95.1754 16.6214 94.601 16.8593 94.0021 16.8593Z" fill="#121212"/>
<path d="M97.6176 11.7972C98.0665 11.7972 98.4305 11.4332 98.4305 10.9843C98.4305 10.5353 98.0665 10.1714 97.6176 10.1714C97.1686 10.1714 96.8047 10.5353 96.8047 10.9843C96.8047 11.4332 97.1686 11.7972 97.6176 11.7972Z" fill="#121212"/>
<circle cx="134" cy="14.5991" r="14" fill="white"/>
<path fill-rule="evenodd" clip-rule="evenodd" d="M134.609 7.82568C131.018 7.82568 128.129 10.7146 128.129 14.3056C128.129 17.1675 129.992 19.5975 132.557 20.4615C132.881 20.5155 132.989 20.3265 132.989 20.1375C132.989 19.9755 132.989 19.5705 132.989 19.0305C131.18 19.4355 130.802 18.1665 130.802 18.1665C130.505 17.4105 130.073 17.2215 130.073 17.2215C129.479 16.8165 130.127 16.8165 130.127 16.8165C130.775 16.8705 131.126 17.4915 131.126 17.4915C131.693 18.4905 132.638 18.1935 133.016 18.0315C133.07 17.5995 133.232 17.3295 133.421 17.1675C131.99 17.0055 130.478 16.4385 130.478 13.9546C130.478 13.2526 130.721 12.6586 131.153 12.2266C131.099 12.0646 130.856 11.4166 131.207 10.4986C131.207 10.4986 131.747 10.3366 132.989 11.1736C133.502 11.0386 134.069 10.9576 134.609 10.9576C135.149 10.9576 135.716 11.0386 136.229 11.1736C137.471 10.3366 138.011 10.4986 138.011 10.4986C138.362 11.3896 138.146 12.0376 138.065 12.2266C138.47 12.6856 138.74 13.2526 138.74 13.9546C138.74 16.4385 137.228 16.9785 135.77 17.1405C136.013 17.3295 136.202 17.7345 136.202 18.3285C136.202 19.1925 136.202 19.8945 136.202 20.1105C136.202 20.2725 136.31 20.4885 136.661 20.4345C139.226 19.5975 141.089 17.1675 141.089 14.3056C141.089 10.7146 138.2 7.82568 134.609 7.82568Z" fill="#121212"/>
</svg>
